<svg xmlns="http://www.w3.org/2000/svg" viewBox="2 25 225 95" role="img" aria-labelledby="title desc">
  <title id="title">Masar Global Icon</title>
  <desc id="desc">Vector SVG logo converted from the supplied Masar Global mark with transparent background.</desc>
  <g fill-rule="evenodd" clip-rule="evenodd">
    <path fill="#82378C" d="M 28 61 L 26 63 L 26 64 L 24 66 L 24 67 L 22 69 L 21 72 L 19 74 L 19 75 L 18 76 L 18 81 L 19 81 L 20 82 L 23 82 L 25 80 L 25 79 L 28 74 Z
M 32 56 L 44 56 L 46 54 L 47 54 L 52 50 L 53 50 L 58 47 L 60 47 L 63 45 L 65 45 L 66 44 L 69 44 L 70 45 L 70 48 L 69 49 L 69 52 L 68 53 L 68 55 L 67 56 L 75 56 L 75 55 L 76 54 L 76 52 L 77 51 L 77 48 L 78 47 L 78 45 L 79 44 L 79 42 L 80 41 L 80 39 L 81 38 L 81 35 L 80 34 L 80 33 L 79 33 L 78 32 L 67 32 L 66 31 L 53 31 L 52 32 L 52 36 L 54 38 L 55 38 L 56 39 L 56 40 L 55 41 L 54 41 L 53 42 L 52 42 L 51 43 L 50 43 L 49 44 L 46 45 L 44 47 L 43 47 L 41 49 L 40 49 L 34 55 L 33 55 Z"/>
    <path fill="#048ABF" d="M 184 55 L 184 56 L 183 57 L 183 59 L 181 62 L 181 64 L 179 67 L 179 69 L 177 72 L 177 74 L 175 77 L 175 79 L 173 82 L 173 84 L 171 87 L 171 89 L 169 92 L 169 94 L 167 97 L 167 99 L 165 102 L 165 104 L 164 105 L 164 106 L 159 111 L 156 111 L 155 112 L 154 112 L 154 114 L 177 114 L 177 112 L 176 112 L 175 111 L 172 111 L 168 108 L 168 107 L 169 106 L 169 103 L 170 102 L 170 100 L 171 99 L 171 97 L 173 94 L 192 94 L 194 96 L 194 98 L 195 99 L 195 100 L 196 101 L 196 103 L 198 106 L 198 109 L 196 111 L 192 111 L 191 112 L 190 112 L 190 114 L 221 114 L 221 112 L 220 112 L 219 111 L 217 111 L 213 108 L 213 107 L 210 102 L 210 100 L 208 97 L 208 95 L 206 92 L 206 90 L 204 87 L 204 85 L 202 82 L 201 77 L 199 74 L 199 72 L 197 69 L 197 67 L 195 64 L 195 62 L 193 59 L 193 57 L 192 56 L 192 55 Z
M 182 71 L 183 71 L 185 73 L 185 75 L 187 78 L 187 80 L 189 83 L 189 85 L 190 86 L 190 88 L 191 89 L 191 90 L 190 91 L 176 91 L 175 90 L 175 87 L 177 84 L 177 82 L 178 81 L 178 79 L 179 78 L 179 77 L 180 76 L 180 74 Z
M 8 57 L 8 73 L 11 73 L 14 66 L 18 61 L 20 60 L 29 61 L 29 108 L 26 111 L 20 112 L 20 114 L 52 114 L 52 112 L 46 111 L 43 108 L 43 61 L 44 60 L 52 60 L 57 65 L 61 73 L 63 73 L 63 61 L 68 60 L 71 63 L 71 109 L 69 111 L 62 112 L 62 114 L 130 114 L 135 113 L 148 107 L 154 100 L 157 93 L 157 78 L 154 71 L 147 63 L 136 58 L 131 57 L 68 57 L 67 55 L 66 57 Z
M 118 60 L 128 60 L 129 61 L 132 62 L 138 68 L 138 69 L 140 72 L 140 74 L 141 75 L 141 78 L 142 79 L 142 94 L 141 95 L 141 98 L 140 99 L 140 101 L 139 102 L 138 105 L 134 109 L 133 109 L 130 111 L 121 111 L 120 110 L 119 110 L 117 107 L 117 61 Z
M 92 59 L 96 59 L 97 60 L 99 60 L 100 61 L 101 61 L 103 63 L 103 108 L 101 111 L 98 111 L 97 112 L 92 112 L 91 111 L 88 111 L 85 108 L 85 63 L 88 60 L 91 60 Z"/>
  </g>
</svg>